<svg xmlns="http://www.w3.org/2000/svg" width="111" height="165" viewBox="0 0 111 165">
  <defs>
    <linearGradient id="a" x1="42.158%" x2="56.906%" y1="85.894%" y2="38.901%">
      <stop offset="0%" stop-color="#494949"/>
      <stop offset="23%" stop-color="#454545"/>
      <stop offset="47%" stop-color="#383838"/>
      <stop offset="71%" stop-color="#232323"/>
      <stop offset="96%" stop-color="#060606"/>
      <stop offset="100%"/>
    </linearGradient>
    <linearGradient id="b" x1="53.371%" x2="49.368%" y1="121.773%" y2="23.334%">
      <stop offset="0%" stop-color="#494949"/>
      <stop offset="23%" stop-color="#454545"/>
      <stop offset="47%" stop-color="#383838"/>
      <stop offset="71%" stop-color="#232323"/>
      <stop offset="96%" stop-color="#060606"/>
      <stop offset="100%"/>
    </linearGradient>
    <linearGradient id="c" x1="50%" x2="50%" y1="50%" y2="100%">
      <stop offset="0%" stop-color="#868686"/>
      <stop offset="100%" stop-color="#B3B6B8"/>
    </linearGradient>
    <linearGradient id="d" x1="35.179%" x2="35.179%" y1="16.569%" y2="100%">
      <stop offset="0%" stop-color="#C4C4C4"/>
      <stop offset="20%" stop-color="#D0D0D0"/>
      <stop offset="40%" stop-color="#DCDCDC"/>
      <stop offset="60%" stop-color="#E7E7E7"/>
      <stop offset="80%" stop-color="#F3F3F3"/>
      <stop offset="100%" stop-color="#FFF"/>
    </linearGradient>
    <linearGradient id="e" x1="-80.717%" x2="-1339.717%" y1="-259%" y2="-3440%">
      <stop offset="0%" stop-color="#00D38F"/>
      <stop offset="20%" stop-color="#00D38F" stop-opacity=".8"/>
      <stop offset="40%" stop-color="#00D38F" stop-opacity=".6"/>
      <stop offset="60%" stop-color="#00D38F" stop-opacity=".4"/>
      <stop offset="80%" stop-color="#00D38F" stop-opacity=".2"/>
      <stop offset="100%" stop-color="#00D38F" stop-opacity="0"/>
    </linearGradient>
    <linearGradient id="f" x1="-32.933%" x2="8.502%" y1="-41.915%" y2="5.838%">
      <stop offset="0%" stop-opacity="0"/>
      <stop offset="100%"/>
    </linearGradient>
    <radialGradient id="g" cx="17.613%" cy="11.46%" r="64.845%" fx="17.613%" fy="11.46%" gradientTransform="matrix(-.56352 -.79185 .79177 -.66182 .185 .33)">
      <stop offset="0%" stop-color="#00D38F"/>
      <stop offset="100%" stop-color="#FFF"/>
    </radialGradient>
    <radialGradient id="h" cx="23.464%" cy="6.086%" r="65.83%" fx="23.464%" fy="6.086%" gradientTransform="matrix(-.50427 -.84085 .80117 -.55355 .304 .292)">
      <stop offset="0%" stop-color="#09D593"/>
      <stop offset="100%" stop-color="#FFF"/>
    </radialGradient>
    <radialGradient id="i" cx="24.846%" cy="19.111%" r="61.781%" fx="24.846%" fy="19.111%" gradientTransform="matrix(-.57331 -.74412 .72175 -.75501 .253 .52)">
      <stop offset="0%" stop-color="#00D38F"/>
      <stop offset="100%" stop-color="#FFF"/>
    </radialGradient>
    <linearGradient id="j" x1="82.192%" x2="22.368%" y1="131.876%" y2=".862%">
      <stop offset="0%" stop-color="#9A9EA1" stop-opacity=".98"/>
      <stop offset="100%" stop-color="#F4F4F4"/>
    </linearGradient>
    <linearGradient id="k" x1="70.92%" x2="19.282%" y1="119.103%" y2="-45.954%">
      <stop offset="0%" stop-color="#00D38F" stop-opacity=".65"/>
      <stop offset="100%" stop-color="#00D38F" stop-opacity="0"/>
    </linearGradient>
    <linearGradient id="l" x1="199.692%" x2="10.047%" y1="181.845%" y2="22.281%">
      <stop offset="0%" stop-color="#00D38F" stop-opacity=".98"/>
      <stop offset="100%" stop-color="#00D38F" stop-opacity="0"/>
    </linearGradient>
    <linearGradient id="m" x1="48.171%" x2="50.416%" y1="140.842%" y2="27.533%">
      <stop offset="0%" stop-color="#7F7F7F"/>
      <stop offset="100%" stop-color="#FEFEFE"/>
    </linearGradient>
    <linearGradient id="n" x1="43.76%" x2="51.819%" y1="94.33%" y2="37.496%">
      <stop offset="0%" stop-color="#FFF" stop-opacity="0"/>
      <stop offset="100%" stop-color="#FFF"/>
    </linearGradient>
  </defs>
  <g fill="none" fill-rule="evenodd">
    <path fill="url(#a)" fill-rule="nonzero" d="M7.23 121.9502c0 1.977 3.6 3.2636 6.74 4.0795.94.2406 1.94.4707 3 .6904 1.29.2406 2.67.4707 4.16.6799v-5.4498l-5.54-1.6702c-.74-1.046-1.3-1.8863-1.88-2.88a11.5717 11.5717 0 0 0-2.64 1.046c-1.84.8055-3.84 1.7783-3.84 3.5042z" transform="translate(7)"/>
    <path fill="url(#b)" fill-rule="nonzero" d="M79.1078 115.4019C77.18 114.79 76.33 114.79 74.44 114.46a2.12 2.12 0 0 0-.31.25 21.8001 21.8001 0 0 1-2.33 1.47l-.25.1.46 8.56c1.79-.41 3.39-.81 4.81-1.22a22.43 22.43 0 0 0 5.82-2.43c.37-.3.69-.59 1-.86.323-.3167.62-.2046.62-1.5573s-3.2246-2.759-5.1522-3.3708z" transform="translate(7)"/>
    <path fill="url(#c)" d="M21 110v21l12.023 3.979h14.845L73 130v-20z" transform="translate(7)"/>
    <path fill="url(#d)" d="M7.23 125.308v10.0336L.2969 144.035 29.31 162l66.13-18-11.18-11.4653v-11.3758l-7.0799 5.1126c-17.0026 3.4057-31.8366 4.7952-44.502 4.1685-12.6654-.6267-21.1481-2.3374-25.4481-5.132z" transform="translate(7)"/>
    <path fill="url(#e)" fill-rule="nonzero" d="M84 99.06a.5.5 0 0 0 0 .15.52.52 0 0 0 .1-.2H84v.05z" transform="translate(7)"/>
    <path fill="url(#f)" fill-rule="nonzero" d="M51.09 65.48H51l-2.68-.56-18.59-3.8-18.85 6.13c-.1.17-.22.36-.36.56a40.51 40.51 0 0 0-5.57 16 46.48 46.48 0 0 0 1.37 18.79c.34 1.12.72 2.27 1.16 3.45.65 1.62 1.4 3.27 2.28 5l2.54 1 9.06 3.45.71.2 5 1.72 8.16-1.21 12-1.83 3.85-.6h.05l5.82-.92 4.82-.7 6.88-17.28-.3-1.31a26 26 0 0 1-.61-7.7 27.21 27.21 0 0 1 .36-3.8l-9-14.94-8.01-1.65z" transform="translate(7)"/>
    <path fill="url(#g)" fill-rule="nonzero" d="M80.2535 36.145c-.08-.31-.14-.61-.19-.92a7.64 7.64 0 0 1-2.7-3.92l-.06-.23a7.6 7.6 0 0 1 .81-6.05 8 8 0 0 1 4.82-3.76 8.22 8.22 0 0 1 2.17-.3 8 8 0 0 1 3.93 1.06 7.6 7.6 0 0 1 3.75 4.84 7.31 7.31 0 0 1 .19.88 7.48 7.48 0 0 1 1.12 1.12 9 9 0 0 0-.33-2.2 8.75 8.75 0 0 0-4.24-5.47 9 9 0 0 0-12.29 3.33 8.71 8.71 0 0 0-.91 6.82 1.42 1.42 0 0 1 .06.21 8.71 8.71 0 0 0 4 5.14c0-.11-.08-.21-.11-.32l-.02-.23z" transform="translate(7)"/>
    <path fill="url(#h)" fill-rule="nonzero" d="M78.1905 39.655a16.33 16.33 0 0 1-1.68-.83l-.34-.2a14 14 0 0 1-6.13-7.24 13.75 13.75 0 0 1-.52-1.57 14.32 14.32 0 0 1 1.52-11.27 16.72 16.72 0 0 1 1.47-2.16 14.39 14.39 0 0 1 7.44-4.84 15.87 15.87 0 0 1 4-.53 14.36 14.36 0 0 1 5.71 1.19c.54.24 1.09.51 1.62.81a14.28 14.28 0 0 1 7 8.91 15.23 15.23 0 0 1 .46 5.73c.39-.63.76-1.28 1.09-1.95a16.82 16.82 0 0 0-.57-4 15.21 15.21 0 0 0-7.43-9.53 17.24 17.24 0 0 0-1.79-.9 15.59 15.59 0 0 0-10.37-.7 15.29 15.29 0 0 0-7.95 5.18 17.12 17.12 0 0 0-1.57 2.27 15.31 15.31 0 0 0-1.57 12c.16.56.34 1.13.55 1.66a15.11 15.11 0 0 0 6.52 7.76l.26.14h1.2l1.08.07z" transform="translate(7)"/>
    <path fill="url(#i)" fill-rule="nonzero" d="M60.7719 27.2896a20.07 20.07 0 0 1 2.07-15.72 20.26 20.26 0 0 1 12.46-9.79 21.23 21.23 0 0 1 5.48-.73 20.75 20.75 0 0 1 10.29 2.8 20.24 20.24 0 0 1 9.74 12.46 21.79 21.79 0 0 1 .51 2.45c.1992-.934.3428-1.879.43-2.83C99.4241 7.4569 92.2104 1.2286 83.4889.161c-8.7216-1.0674-17.2245 3.2373-21.527 10.8985a21.06 21.06 0 0 0-2.17 16.49 22.62 22.62 0 0 0 1.21 3.42 20.72 20.72 0 0 0 2.66 4.39 25 25 0 0 0 2.57 1.33 19.58 19.58 0 0 1-4.3-6.13 22.56 22.56 0 0 1-1.16-3.27z" transform="translate(7)"/>
    <path fill="url(#j)" fill-rule="nonzero" d="M67.4 51.25c-.34-.17-.69-.34-1.07-.51a39.51 39.51 0 0 0-4.81-1.92 43.33 43.33 0 0 0-13.72-2.13 41.15 41.15 0 0 0-26.74 9.22 53.5396 53.5396 0 0 0-3.85 3.44 44.6 44.6 0 0 0-6.33 7.9l18.89-6.13L51 65.48h.05l8 1.62L68 81.94a32.28 32.28 0 0 0 .6 12.91l-6.88 17.28-4.82.7-5.82.92H51l-3.85.6-12 1.83-8.15 1.21-5-1.72-.71-.2-11.6-4.41c.1.2.21.39.31.56a2.1 2.1 0 0 1 .15.3h.05l.2.41c.98 1.6533 2.0433 3.34 3.19 5.06.61 1 1.29 1.91 2 2.89L21 122l7.9 2.43 22.18-1.82 7-.61c1.86-.64 3.93-1.43 6.23-2.38 1.92-.81 3.63-1.57 5.11-2.28.81-.37 1.52-.72 2.13-1.06.1 0 1.94-1.1 2.58-1.57a2.12 2.12 0 0 1 .31-.25c.27-.17.54-.36.81-.56 0 0 5.48-6.28 6.43-7.8a38.67 38.67 0 0 0 3.85-7.55c.18-.44.35-.9.51-1.37 0 0 0-.15-.05-.14a57.17 57.17 0 0 0 2-19.25 40 40 0 0 0-1-5.68c-.14-.6-.29-1.19-.46-1.77a44.89 44.89 0 0 0-8.1-11 46.3 46.3 0 0 0-6.64-5.52c-1.4467-.94-2.9133-1.8-4.4-2.58l.01.01z" transform="translate(7)"/>
    <g fill-rule="nonzero">
      <path fill="url(#k)" d="M50.45 39.93l-2.28.86c.54.31 1.06.59 1.57.86a9.92 9.92 0 0 1-.21 2 22.38 22.38 0 0 1 1.88-2 21.76 21.76 0 0 1 2.23-.86 7.56 7.56 0 0 0-1.47-.86 11.21 11.21 0 0 0-.1-2.07 19.35 19.35 0 0 1-1.62 2.07zM46 11.77c0 1 0 2.1-.1 3.24-.85.31-1.64.63-2.38 1a25.6 25.6 0 0 0 2.58 1.26c.27 1.08.59 2.18 1 3.29.31-1.11.56-2.21.76-3.29.85-.37 1.76-.74 2.74-1.11-1.08-.37-2.08-.74-3-1.12a30.38 30.38 0 0 0-1.6-3.27z" transform="translate(12 61)"/>
      <path fill="url(#l)" d="M26.39 1.49L23.05.83 6 6.35l-.31.51a33.07 33.07 0 0 0-2.73 5.37 37 37 0 0 0-2.33 9.12l-.2 1.82a18.16 18.16 0 0 0 2.53 4.4 21.35 21.35 0 0 0 6.79 5.58c6.2415 3.6373 14.1173 2.829 19.49-2 1.29.41 2.52.78 3.7 1.11 5 1.22 8 .85 9-1.11.7667-1.6867-.7367-4.64-4.51-8.86-.2-.1933-1.18-1.29-2.94-3.29a1.83 1.83 0 0 1-.05-.4 20.82 20.82 0 0 0-.76-6.79 18.56 18.56 0 0 0-7.29-10.28v-.04zm8 19.95c2.87 3.58 4.17 6.17 3.9 7.8-1.28.6-3.51.47-6.69-.41a.35.35 0 0 0-.35-.1 19.68 19.68 0 0 0 1.42-2.53 25.68 25.68 0 0 0 1.57-5.07 1 1 0 0 0 .15.31z" transform="translate(12 61)"/>
    </g>
    <path fill="#A4A4A4" fill-rule="nonzero" d="M85.89 68.87a3.37 3.37 0 0 0-.6-.05c-2.4333-.1-4.5967 1.1833-6.49 3.85-.23.34-.45.68-.65 1a20.79 20.79 0 0 0-2.79 6.89c-.1.48-.2 1-.3 1.47a27.21 27.21 0 0 0-.36 3.8 26 26 0 0 0 .61 7.7l.3 1.31a25.3 25.3 0 0 0 1.47 3.5A12.24 12.24 0 0 0 78.8 101a6.78 6.78 0 0 0 5 2.79 6.87 6.87 0 0 0 4-1.17 8.82 8.82 0 0 0 1.16-1c.51-.4.97-.86 1.37-1.37a9 9 0 0 0 .86-1.16 11.43 11.43 0 0 0 .81-1.5 23.39 23.39 0 0 0 1.47-3.49l.31-1.32a26 26 0 0 0 .6-7.7 27.23 27.23 0 0 0-.35-3.8c-.1-.5-.2-.99-.3-1.47 0-.15-.07-.3-.11-.45a1.6 1.6 0 0 0 0-.21c-.11-.47-.25-.94-.4-1.41a35.7 35.7 0 0 0-1.07-3.45A11.68 11.68 0 0 0 88.63 70a6.42 6.42 0 0 0-2.43-1.07 1 1 0 0 0-.3 0l-.01-.06z"/>
    <path fill="#000" fill-rule="nonzero" d="M88.58 76.07a10.63 10.63 0 0 1 2.1-.82c-.54 0-4.4.41-4.47.45a10.72 10.72 0 0 0-2.34 2.75 15.9 15.9 0 0 0-2.28 8 15.3 15.3 0 0 0 1.57 8.15A8.94 8.94 0 0 0 86.3 98l3.94.15a15.5 15.5 0 0 1-3.38-1.88 13.76 13.76 0 0 1-1.07-1.72 16.1 16.1 0 0 1-1.57-8.15 16.65 16.65 0 0 1 2.28-8c.17-.27.36-.54.56-.81a6 6 0 0 1 1.52-1.57v.05z"/>
    <path fill="url(#m)" fill-rule="nonzero" d="M81.58 76.07a6 6 0 0 0-1.52 1.57c-.2.27-.39.54-.56.81a16.65 16.65 0 0 0-2.28 8 16.1 16.1 0 0 0 1.57 8.15c.17.3.34.59.51.86 1.18 2.23 3.9 3.17 5.37 2.59 3-1.2 4.27-5 4.51-5.58a18.57 18.57 0 0 0 1-5.42 15.5 15.5 0 0 0 0-1.67A16 16 0 0 0 89 79.76c-.17-.48-1.66-4.51-4.86-4.51a3.27 3.27 0 0 0-1.47.26 5.26 5.26 0 0 0-1.11.56h.02z" transform="translate(7)"/>
    <path fill="#FFF" fill-rule="nonzero" d="M53.94 102.5a.53.53 0 0 1 .2.41.66.66 0 0 1-.2.44.56.56 0 0 1-.41.16.55.55 0 0 1-.6-.6.56.56 0 0 1 .16-.41.66.66 0 0 1 .44-.2.53.53 0 0 1 .41.2zm-19.44 7.85a.53.53 0 0 0 .2-.42.62.62 0 0 0-.2-.44.54.54 0 0 0-.41-.16.65.65 0 0 0-.44.16.67.67 0 0 0-.17.44.57.57 0 0 0 .17.42.59.59 0 0 0 .44.19.5.5 0 0 0 .41-.19zm15.62-39.03a.35.35 0 0 0-.13.27.41.41 0 0 0 .13.3.4.4 0 0 0 .27.11.38.38 0 0 0 .41-.41.4.4 0 0 0-.11-.27.41.41 0 0 0-.3-.13.35.35 0 0 0-.27.13zm2.94-.81a.35.35 0 0 0-.13.27.39.39 0 0 0 .13.29.37.37 0 0 0 .27.12.41.41 0 0 0 .41-.41.37.37 0 0 0-.12-.27.39.39 0 0 0-.29-.13.35.35 0 0 0-.27.13zm16.68 19.41a.23.23 0 0 0-.09.18.26.26 0 0 0 .09.19.25.25 0 0 0 .18.08.32.32 0 0 0 .2-.08.28.28 0 0 0 .07-.19.24.24 0 0 0-.07-.18.28.28 0 0 0-.2-.09.23.23 0 0 0-.18.09zm-4.91-6.16a.54.54 0 0 1 .2.41.64.64 0 0 1-.2.44.58.58 0 0 1-.41.17.58.58 0 0 1-.61-.61.58.58 0 0 1 .17-.41.64.64 0 0 1 .44-.2.54.54 0 0 1 .41.2zm-14.74 25.15a.23.23 0 0 0-.09.18.28.28 0 0 0 .09.2.24.24 0 0 0 .18.07.24.24 0 0 0 .27-.27.24.24 0 0 0-.07-.18.28.28 0 0 0-.2-.09.23.23 0 0 0-.18.09zM20 101.87a.23.23 0 0 0-.09.18.28.28 0 0 0 .09.2.24.24 0 0 0 .18.07.28.28 0 0 0 .19-.07.32.32 0 0 0 .08-.2.25.25 0 0 0-.08-.18.26.26 0 0 0-.19-.09.23.23 0 0 0-.18.09zm17.23 0a.23.23 0 0 0-.09.18.28.28 0 0 0 .09.2.24.24 0 0 0 .18.07.28.28 0 0 0 .19-.07.32.32 0 0 0 .08-.2.25.25 0 0 0-.08-.18.26.26 0 0 0-.19-.09.23.23 0 0 0-.18.09z"/>
    <path fill="#FFF" fill-opacity=".2" fill-rule="nonzero" d="M18.23 68.72l-3.59 11c-1.4133 6.5333-1.8867 11.5633-1.42 15.09A38.2 38.2 0 0 0 16 105a13 13 0 0 0 1.83 3.35l16.36 7.09c-3.66-16.96-2.9533-34.3567 2.12-52.19l-18.08 5.47z"/>
    <path fill="url(#n)" fill-rule="nonzero" d="M9.51 100.48l4.3 3.85a35.92 35.92 0 0 0-.2-5.42L8.8 93.28c-.43.86-.2 3.26.71 7.2zm6.84-21.17l-5.07-4.61C9.3733 81.6933 8.6133 86.7933 9 90l5.17 6c.3667-8.4267 1.11-13.98 2.23-16.66l-.05-.03z" transform="translate(7)"/>
    <path fill="#000" fill-rule="nonzero" d="M93.44 87.21a.5001.5001 0 0 1-.5-.51v-56a.5.5 0 0 1 .5-.51.51.51 0 0 1 .51.51v56a.51.51 0 0 1-.51.51z"/>
    <path fill="#000" fill-rule="nonzero" d="M95.21 30.13a1.75 1.75 0 0 0-.55-1.27 1.7 1.7 0 0 0-1.22-.5 1.73 1.73 0 0 0-1.77 1.77 1.63 1.63 0 0 0 .51 1.21 1.7 1.7 0 0 0 1.26.56c.9483-.0673 1.7027-.8217 1.77-1.77zM42.311 132.5293c40.3262 0 48.4812-7.4386 48.949-8.0993v-5.6573c-1.8793 1.7816-5.1208 3.4122-9.7244 4.8919-5.8286 1.5152-21.4332 3.7354-40.3442 3.7354s-26.9052-4.5494-26.9614-5l-.02 5c3.7346 3.4195 13.1016 5.1293 28.101 5.1293z"/>
  </g>
</svg>
