<svg xmlns="http://www.w3.org/2000/svg" width="144" height="179" viewBox="0 0 144 179">
  <defs>
    <linearGradient id="a" x1="-26.572%" x2="116.844%" y1="-61.914%" y2="174.043%">
      <stop offset="0%" stop-color="#DCDCDC" stop-opacity=".96"/>
      <stop offset="100%" stop-color="#FFF"/>
    </linearGradient>
    <linearGradient id="b" x1="40.846%" x2="22.535%" y1="7.719%" y2="113.649%">
      <stop offset="0%" stop-color="#8B8B8B"/>
      <stop offset="20%" stop-color="#6F6F6F"/>
      <stop offset="40%" stop-color="#535353"/>
      <stop offset="60%" stop-color="#383838"/>
      <stop offset="80%" stop-color="#1C1C1C"/>
      <stop offset="100%"/>
    </linearGradient>
    <linearGradient id="c" x1="33.47%" x2="-42.037%" y1="-121.679%" y2="-289.563%">
      <stop offset="2%"/>
      <stop offset="77%" stop-opacity="0"/>
    </linearGradient>
    <linearGradient id="d" x1="201.058%" x2="374.814%" y1="5.388%" y2="176.171%">
      <stop offset="0%" stop-color="#00D38F" stop-opacity="0"/>
      <stop offset="100%" stop-color="#00D38F"/>
    </linearGradient>
    <linearGradient id="e" x1="72%" x2="-9.818%" y1="95.342%" y2="-68.889%">
      <stop offset="2%"/>
      <stop offset="77%" stop-opacity="0"/>
    </linearGradient>
    <linearGradient id="f" x1="-54.186%" x2="119.976%" y1="167.052%" y2="-26%">
      <stop offset="0%" stop-color="#00D38F"/>
      <stop offset="100%" stop-color="#00D38F" stop-opacity=".05"/>
    </linearGradient>
    <linearGradient id="g" x1="63.425%" x2="18.748%" y1="-8.151%" y2="77.939%">
      <stop offset="0%" stop-color="#00D38F"/>
      <stop offset="100%" stop-color="#00D38F" stop-opacity=".05"/>
    </linearGradient>
    <linearGradient id="h" x1="374.053%" x2="524.134%" y1="179.87%" y2="315.412%">
      <stop offset="0%" stop-color="#00D38F" stop-opacity="0"/>
      <stop offset="100%" stop-color="#00D38F"/>
    </linearGradient>
    <linearGradient id="i" x1="14.981%" x2="89.93%" y1="147.983%" y2="-65.228%">
      <stop offset="0%" stop-color="#00D38F"/>
      <stop offset="100%" stop-color="#00D38F" stop-opacity=".05"/>
    </linearGradient>
    <linearGradient id="j" x1="60.139%" x2="36.555%" y1="64.752%" y2="37.495%">
      <stop offset="0%" stop-color="#9A9EA1"/>
      <stop offset="58%" stop-color="#9A9EA1" stop-opacity=".4"/>
      <stop offset="100%" stop-color="#9A9EA1" stop-opacity="0"/>
    </linearGradient>
    <linearGradient id="k" x1="17.707%" x2="88.288%" y1="34.117%" y2="68.828%">
      <stop offset="0%" stop-color="#9A9EA1"/>
      <stop offset="4%" stop-color="#9A9EA1" stop-opacity=".88"/>
      <stop offset="15%" stop-color="#9A9EA1" stop-opacity=".62"/>
      <stop offset="25%" stop-color="#9A9EA1" stop-opacity=".39"/>
      <stop offset="36%" stop-color="#9A9EA1" stop-opacity=".22"/>
      <stop offset="47%" stop-color="#9A9EA1" stop-opacity=".1"/>
      <stop offset="58%" stop-color="#9A9EA1" stop-opacity=".02"/>
      <stop offset="69%" stop-color="#9A9EA1" stop-opacity="0"/>
    </linearGradient>
  </defs>
  <g fill="none">
    <path fill="#000" fill-opacity=".1" d="M58.8 170.5a180.82 180.82 0 0 0-22.13 1.15c-6.1133.8-9.17 1.75-9.17 2.85s3.0567 2.0333 9.17 2.8a173.9999 173.9999 0 0 0 22.13 1.2 173.9999 173.9999 0 0 0 22.13-1.2c6.1067-.7733 9.1633-1.7067 9.17-2.8.0067-1.0933-3.05-2.0433-9.17-2.85a180.82 180.82 0 0 0-22.13-1.15z"/>
    <path fill="url(#a)" d="M65.71 124.25l-6.7.05 1.65-2.4.45-3.5-7-3.3-.1-.05-14.45 3.6-12 7.55v.05l-2.55 7.4 3.4 2.85h2.05l-4.45 4.5-1.8 5.05 6.45 20.35 12.65.65 15.4-3.45 1.1-.25 12.45-8.5 8.35-9.55-10.05-18.8z"/>
    <path fill="#00D38F" d="M60.16 143.16l-7.9 3.05-16-4.25-6.35 10.1 6.4 10.1 10.85-.35 5.1-.75c3.6-.6267 5.8-1.1767 6.6-1.65 1.3667-.8 3.7-3.2 7-7.2l3-9.75-1.75-5-3.5 1.9-3.35 3.8h-.1z"/>
    <path fill="#00D38F" d="M61 130.37l-3.55 4.3c-.3733-.3-2.64.7833-6.8 3.25l-.45 3 4.8-2 5.45-.55 4-2.4.7-4.15-4.15-1.45z"/>
    <path fill="url(#b)" d="M126.45 0l-32.1 14.4-21.6 21.25-25.4 40.95-.35 17L61.5 90c2-.5733 5.5167-2.7233 10.55-6.45 2.5733-1.8733 4.94-3.69 7.1-5.45L96.9 60.9l6.45-8.4-7-5.85 9.4 2-8.7-6.45 9.7 3.25 5-9.25 2.5-9.55-6.8-3.05 9.85-3.6 9.15-20z"/>
    <path fill="#00E59B" d="M46.21 100.75l-2.21 1.1 1.2-7.55-1.89 3.7-2.05 4.1-2.95 14.8z"/>
    <path fill="#000" d="M93 27.35l-.9.65-44.79 62-2.15 4.3-1.16 7.55 2.25-1.1.5-1L94.91 30l5.85-8.5z"/>
    <path fill="#00E59B" d="M0 53.28l.59.82 1-.32v-1l-.95-.31z"/>
    <path fill="url(#c)" d="M123.51 88.84l1.48.76 1.56-.51.75-1.45-.5-1.59-1.45-.75-1.59.5-.76 1.48z"/>
    <path fill="url(#d)" d="M29.06 2L27.85.2 25.71 0l-1.49 1.61.27 2.18 1.92 1.11 2-.78z"/>
    <path fill="url(#e)" d="M57.91 23l1.05.6 1.1-.4.4-1.2-.7-1-1.25-.1-.8.9z"/>
    <path fill="url(#f)" d="M16.62 52.74L49.79 5.18v-.27l-35.25 46-.12 1 .45.82.92.38.8-.31z"/>
    <path fill="url(#g)" d="M137.32 28.07l-.9 1.3-14.79 22.36-.24.9.24.71.66-.12.83-.82 14-23.15.31-.51 6.32-10.4-6.44 9.73z"/>
    <path fill="url(#h)" d="M69.58 102.74l1.49.76 1.56-.5.76-1.47-.5-1.59-1.47-.76-1.59.51-.76 1.49z"/>
    <path fill="#00E59B" d="M24.51 115.45l-7.35-4.1-5.7 1.45-1.46 5.65 4.1 1.15 6-4zM19.11 107.57l4.89 1.35-.13-7.48-5.32-.44-1.55 4.38z"/>
    <path fill="url(#i)" d="M105.81 92.1L104 94.75l-30 45.4-.59 1.85.45 1.5 1.4-.3 1.65-1.7 28.5-47 .65-1 12.8-21.15-13 19.75z"/>
    <path fill="#00E59B" d="M43.19 49.46l1.62 1.4 1.8-1.12-.48-2.06L44 47.5z"/>
    <path fill="#000" d="M121.42 28.55l.76.66.85-.53-.23-1-1-.08z"/>
    <path fill="#00E59B" d="M108 104.45l.76.66.85-.53-.23-1-1-.08z"/>
    <path fill="url(#j)" d="M53.4 116.23h-.09L40 119.46 29 126l-.68 2.93 5.31 1.18 11.16-3.46 8.9-5.37 1.82-3.52-2.12-1.54z"/>
    <path fill="url(#k)" d="M30.46 136.5l7.08-.38 8.67-2.99 6.2-3.01 6.6-5.82h2.1l-2.92 2.99-7.65 5.84-10.49 4.81-11.47.46z"/>
  </g>
</svg>
