<svg xmlns="http://www.w3.org/2000/svg" width="174" height="164" viewBox="0 0 174 164">
  <defs>
    <linearGradient id="a" x1="7.206%" x2="120.949%" y1="-13.345%" y2="113.787%">
      <stop offset="0%" stop-color="#231F20"/>
      <stop offset="100%" stop-color="#FFF"/>
    </linearGradient>
    <linearGradient id="b" x1="-68.036%" x2="42.97%" y1="59.448%" y2="-47.05%">
      <stop offset="1%"/>
      <stop offset="100%" stop-opacity="0"/>
    </linearGradient>
    <linearGradient id="c" x1="-5.301%" x2="56.898%" y1="108.85%" y2="44.571%">
      <stop offset="1%"/>
      <stop offset="100%" stop-opacity="0"/>
    </linearGradient>
    <linearGradient id="d" x1="0%" y1="50%" y2="50%">
      <stop offset="0%" stop-opacity=".33"/>
      <stop offset="20%" stop-opacity=".464"/>
      <stop offset="40%" stop-opacity=".598"/>
      <stop offset="60%" stop-opacity=".732"/>
      <stop offset="80%" stop-opacity=".866"/>
      <stop offset="100%"/>
    </linearGradient>
    <linearGradient id="e" x1="184.164%" x2="-59.543%" y1="49.284%" y2="50.229%">
      <stop offset="7%" stop-opacity="0"/>
      <stop offset="9.6%" stop-opacity=".1"/>
      <stop offset="12.2%" stop-opacity=".2"/>
      <stop offset="14.8%" stop-opacity=".3"/>
      <stop offset="17.4%" stop-opacity=".4"/>
      <stop offset="20%" stop-opacity=".5"/>
      <stop offset="20%" stop-opacity=".5"/>
      <stop offset="35.4%" stop-opacity=".6"/>
      <stop offset="50.8%" stop-opacity=".7"/>
      <stop offset="66.2%" stop-opacity=".8"/>
      <stop offset="81.6%" stop-opacity=".9"/>
      <stop offset="97%"/>
    </linearGradient>
    <linearGradient id="f" x1="-982.818%" x2="99.727%" y1="50%" y2="50%">
      <stop offset="0%" stop-opacity=".33"/>
      <stop offset="100%"/>
    </linearGradient>
    <linearGradient id="g" x1="25.734%" y1="99.558%" y2="-19.624%">
      <stop offset="0%" stop-color="#BCBCC4" stop-opacity=".97"/>
      <stop offset="100%" stop-color="#FFF"/>
    </linearGradient>
  </defs>
  <g fill="none">
    <path fill="#000" fill-opacity=".1" d="M138.8 162.2c14.3133-.7667 21.47-1.7 21.47-2.8 0-1.1-7.1567-2.05-21.47-2.85-14.3133-.7733-31.58-1.1567-51.8-1.15-20.22.0067-37.4833.39-51.79 1.15-14.3067.8-21.46 1.75-21.46 2.85s7.1533 2.0333 21.46 2.8c14.3267.8 31.59 1.2 51.79 1.2s37.4667-.4 51.8-1.2z"/>
    <path fill="#C2C2C2" d="M47.55 94.55l-16.8-16.1L.35 107.7h74l-20.3-19.45z"/>
    <path fill="url(#a)" d="M114 88.52a2.39 2.39 0 0 0-1.87.25 2.5 2.5 0 0 0-1.19 1.63 2.3 2.3 0 0 0 .31 1.87 2.71 2.71 0 0 0 1.63 1.19 2.32 2.32 0 0 0 1.88-.31 2.49 2.49 0 0 0 1.18-1.63 2.57 2.57 0 0 0-.31-1.87 2.44 2.44 0 0 0-1.63-1.13z"/>
    <path fill="#00E59B" d="M53.37 53.51a.61.61 0 0 0-.61.09.84.84 0 0 0-.36.48.93.93 0 0 0 .12.61.91.91 0 0 0 .49.41.69.69 0 0 0 .6-.13.86.86 0 0 0 .37-.48.93.93 0 0 0-.12-.61.77.77 0 0 0-.49-.37zM82.83 66l.73-1.21-1.21.73a1.18 1.18 0 0 1-1.32 0l-1.21-.73.73 1.21a1.18 1.18 0 0 1 0 1.32l-.73 1.21 1.18-.75a1.21 1.21 0 0 1 1.32 0l1.21.74-.73-1.21a1.18 1.18 0 0 1 .03-1.31z"/>
    <path fill="#231F20" fill-opacity=".39" d="M65.17 50.37a2.1213 2.1213 0 0 0-3 3 2.09 2.09 0 0 0 3 0 2.08 2.08 0 0 0 0-3z"/>
    <path fill="#231F20" d="M64.4 51.12a1 1 0 1 0-1.4 1.4283 1 1 0 0 0 1.4-1.4283zm32.9 4.11a.85.85 0 0 0-.84.11A1.2 1.2 0 0 0 96 56c-.04.288.02.581.17.83a1.22 1.22 0 0 0 .66.56 1 1 0 0 0 .84-.17 1.18 1.18 0 0 0 .5-.66 1.36 1.36 0 0 0-.16-.84 1 1 0 0 0-.71-.49z"/>
    <path fill="url(#b)" d="M67.11 68.86h.07a1372.827 1372.827 0 0 1 8.64-10.46l-9.77 9.25a.9.9 0 0 0-.05 1.21 1 1 0 0 0 .61.2.7.7 0 0 0 .52-.2h-.02z"/>
    <path fill="url(#c)" d="M87.45 84.25a1 1 0 0 0 .6-.2l34.85-38.4-36.15 37.1a.69.69 0 0 0-.25.65 1 1 0 0 0 .3.7.86.86 0 0 0 .65.15z"/>
    <path fill="#00E59B" d="M96.9 98.4a.62.62 0 0 0-.55 0 .64.64 0 0 0-.2 1 .61.61 0 0 0 .4.35.55.55 0 0 0 .55-.1 1.06 1.06 0 0 0 .35-.45.81.81 0 0 0-.1-.55.6.6 0 0 0-.45-.3v.05z"/>
    <path fill="#696969" d="M72.75 88.2l-6.55 6.35L49.45 78.4 19.1 107.7H93z"/>
    <path fill="#000" d="M72 78.65l.2.2c-.06-.08-.12-.16-.2-.25v.05zm23.1 9.95l-6.4 6.2-.25-.2 13.3 13.1h13.1865L95.1 88.6zM69 78.7l-30.082 29h60.574z"/>
    <path fill="#CCF1E2" d="M130.4 60.5v13l7 2.5-8.85 1.45-.55-.2v8.8l11.15 3.4v-5.3l14.5-2.35.4.15V69.5l-2.6-1.15 23-5.6V45l-14.5 4.45-29.5 9z"/>
    <path fill="#83F0C5" d="M123.45 57.5v13l7 2.5-8.9 1.45-.55-.2v8.8l11.15 3.4v-5.3l14.5-2.35.4.15V66.5l-2.6-1.15 23-5.6V42l-14.5 4.45-29.5 9v2z"/>
    <path fill="#E6E6E6" fill-opacity=".81" d="M88.75 23.75a38.2 38.2 0 0 0-3-2.85 16.48 16.48 0 0 0 .65-4.65A14.73 14.73 0 0 0 82 5.45 14.64 14.64 0 0 0 71.2 1a14.8 14.8 0 0 0-10.8 4.45l-.25.25c-.83-.3-1.65-.57-2.45-.8a21 21 0 0 0-2.7-.65c-2.8733-.5267-4.8067-.3433-5.8.55a1.55 1.55 0 0 0-.4.45c-.53.9-.4 2.1.4 3.6a23.91 23.91 0 0 0 3.5 4.4c1 1.07 2.1 2.13 3.3 3.2A14.56 14.56 0 0 0 60.4 27c4.59 4.6032 11.5863 5.806 17.45 3a48.42 48.42 0 0 0 5.85 2.1c4.9267 1.4667 7.8933 1.3833 8.9-.25.5333-.8667.4333-2.0167-.3-3.45a21.86 21.86 0 0 0-3.55-4.65zm-3.5-1.45c.57.53 1.1 1.07 1.6 1.6 2.8333 3 4.1 5.25 3.8 6.75-1.4.4267-3.6667.1767-6.8-.75-1.23-.37-2.48-.78-3.75-1.25A21.67 21.67 0 0 0 82 27a15.93 15.93 0 0 0 3.3-4.7h-.05zM56.3 13.4a6.65 6.65 0 0 1-.65-.65c-2.8267-2.9733-4.0933-5.2067-3.8-6.7 1.4-.4267 3.6667-.1933 6.8.7l.55.2a14.63 14.63 0 0 0-3 6.45h.1z"/>
    <path fill="#CBCBCB" d="M88.35 11.55A14.64 14.64 0 0 0 77.6 7.1a14.8 14.8 0 0 0-10.8 4.45l-.25.25c-.83-.3-1.65-.57-2.45-.8a21 21 0 0 0-2.75-.65c-2.8733-.5267-4.8067-.3433-5.8.55a1.55 1.55 0 0 0-.4.45c-.53.9-.4 2.1.4 3.6a23.91 23.91 0 0 0 3.5 4.4c1 1.07 2.1 2.13 3.3 3.2A14.56 14.56 0 0 0 66.8 33.1c4.59 4.6032 11.5863 5.806 17.45 3a48.42 48.42 0 0 0 5.85 2.1c4.9333 1.4667 7.9 1.3833 8.9-.25.5333-.8733.4333-2.0233-.3-3.45a21.86 21.86 0 0 0-3.55-4.65 38.2 38.2 0 0 0-3-2.85 16.48 16.48 0 0 0 .65-4.65 14.73 14.73 0 0 0-4.5-10.8h.05zM62 18.85c-2.8333-2.9733-4.1-5.2067-3.8-6.7 1.4-.4267 3.6667-.1933 6.8.7l.55.2a14.63 14.63 0 0 0-2.9 6.45 6.65 6.65 0 0 1-.65-.65zM93.25 30c2.8333 3 4.1 5.25 3.8 6.75-1.4.4267-3.6667.1767-6.8-.75-1.23-.37-2.48-.78-3.75-1.25a21.67 21.67 0 0 0 1.85-1.65 15.93 15.93 0 0 0 3.3-4.7c.57.53 1.1 1.07 1.6 1.6z"/>
    <path fill="url(#d)" d="M144 24.7c0 .07-11 11.78-11 11.78v71.22H28v11h116v-94z"/>
    <path fill="url(#e)" d="M39 35.7l93 1h12v-12H28v93.5c.06 0 0 0 0 0v-.05c2.25-2.23 11-10.4 11-10.4V35.7z"/>
    <path fill="#00E59B" d="M113.5 71.5v8.8l11.15 3.4v-8.65z"/>
    <path fill="#00E59B" d="M113.55 80.2l25.65-4.15V67.6l-25.65 4.15z"/>
    <path fill="#00E59B" d="M139.55 63.75L116 53.3v14.45l23.6 8.45z"/>
    <path fill="url(#f)" d="M144 47.7h-11v42h11z"/>
    <path fill="#00E59B" d="M160 57V39.25l-14.5 4.45-29.5 9v14.9l14.35-3.45h.3z"/>
    <path fill="url(#g)" d="M101 30.57a14.39 14.39 0 0 0-4.45-10.65 15.05 15.05 0 0 0-21.37 0 14.51 14.51 0 0 0-4.38 10.65 15.06 15.06 0 0 0 15.1 15.1 14.53 14.53 0 0 0 10.65-4.44A14.39 14.39 0 0 0 101 30.57z"/>
    <path fill="#666" d="M69 28.15c-3.0667-2.5667-4.5167-4.6167-4.35-6.15a2 2 0 0 1 .2-.6c.6-1.2733 2.4833-1.7733 5.65-1.5-1.0194-.1657-2.0965-.3371-2.9451-.4-3.419-.2534-5.4586.3846-6.1049 1.8-.8067 1.7667.76 4.3333 4.7 7.7a54.39 54.39 0 0 0 4.4 3.35l.3.2a85 85 0 0 0 10.8 5.9A81.37 81.37 0 0 0 94 43l.45.1c1.57.4 3.08.72 4.55.95 5.1.8333 7.8434.1736 8.7393-1.05.8958-1.2236.8882-3.2742-1.7193-5.667-1.1557-.9105-1.6116-1.241-1.6416-1.241 2.3 2.27 1.706 2.4565 1.706 3.158-.1024.204-.6138 1.6897-.7763 1.85-1 1.1-3.5781.93-7.5081.3l-1.15-.2a3.29 3.29 0 0 1-.4-.1 59.17 59.17 0 0 1-13.65-4.7 65.85 65.85 0 0 1-11.8-6.8 1.82 1.82 0 0 1-.25-.2c-.55-.4-1.08-.85-1.55-1.25z"/>
    <path fill="#000" d="M100.3938 34.9578c1.1203.6496 2.1004 1.3055 2.9404 1.968 1.3613 1.185 2.9903 2.315 1.974 4.1742 0 0 .551 0 1.0163-.7414 1.004-1.6006.1058-2.7485-2.0406-4.338-2.1465-1.5896-3.2817-2.301-3.5272-2.4768-.0637.3373-.1846.8087-.363 1.414zM69.8333 19.798c-3.1667-.2733-4.3833.2786-4.9833 1.5519a2 2 0 0 0-.2.6c1.0333-1.1 3.5333-1.3333 7.5-.7.9001.1734 1.4845.404 1.4845.404.3415-.404.7613-.8141.7613-.8141-1.717-.593-4.5625-1.0418-4.5625-1.0418z"/>
  </g>
</svg>
