<svg xmlns="http://www.w3.org/2000/svg" width="147" height="175" viewBox="0 0 147 175">
  <defs>
    <linearGradient id="a" x1="42.746%" x2="73.397%" y1="87.867%" y2="-45.701%">
      <stop offset="0%"/>
      <stop offset="100%" stop-color="#FFF"/>
    </linearGradient>
    <linearGradient id="b" x1="49.892%" x2="50.752%" y1="78.814%" y2="-64.484%">
      <stop offset="0%" stop-color="#00D38F"/>
      <stop offset="100%" stop-color="#00D38F"/>
    </linearGradient>
    <linearGradient id="c" x1="49.081%" x2="50.303%" y1="-100.482%" y2="99.745%">
      <stop offset="0%" stop-color="#9A9EA1"/>
      <stop offset="20%" stop-color="#AEB1B4"/>
      <stop offset="40%" stop-color="#C2C5C7"/>
      <stop offset="60%" stop-color="#D7D8D9"/>
      <stop offset="80%" stop-color="#EBECEC"/>
      <stop offset="100%" stop-color="#FFF"/>
    </linearGradient>
    <linearGradient id="d" x1="50%" x2="92.242%" y1="50%" y2="-33.782%">
      <stop offset="0%" stop-color="#92ECCF"/>
      <stop offset="20%" stop-color="#A8F0D9"/>
      <stop offset="40%" stop-color="#BEF4E2"/>
      <stop offset="60%" stop-color="#D3F7EC"/>
      <stop offset="80%" stop-color="#E9FBF5"/>
      <stop offset="100%" stop-color="#FFF"/>
    </linearGradient>
    <linearGradient id="e" x1="100%" x2="-6.003%" y1="41.916%" y2="59.723%">
      <stop offset="0%" stop-color="#00D38F"/>
      <stop offset="20%" stop-color="#1FD89D"/>
      <stop offset="40%" stop-color="#3EDEAA"/>
      <stop offset="60%" stop-color="#5CE3B8"/>
      <stop offset="80%" stop-color="#7BE9C5"/>
      <stop offset="100%" stop-color="#9AEED3"/>
    </linearGradient>
    <linearGradient id="f" x1="61.98%" x2="16.326%" y1="85.859%" y2="-38.372%">
      <stop offset="0%" stop-color="#00D38F"/>
      <stop offset="20%" stop-color="#10DA99"/>
      <stop offset="40%" stop-color="#20E1A3"/>
      <stop offset="60%" stop-color="#30E9AD"/>
      <stop offset="80%" stop-color="#40F0B7"/>
      <stop offset="100%" stop-color="#50F7C1"/>
    </linearGradient>
  </defs>
  <g fill="none">
    <path fill="#000" d="M4 7H3V4H0V3h3V0h1v3h3v1H4zM144 7h-1V4h-3V3h3V0h1v3h3v1h-3zM4 175H3v-3H0v-1h3v-3h1v3h3v1H4zM144 175h-1v-3h-3v-1h3v-3h1v3h3v1h-3z"/>
    <path fill="#B9BABB" d="M113.33 71.53l-1.28 6.66 6.56 3.18 3.91-4-1.3-4.73-4.13-2.16-3.76 1.08z"/>
    <path fill="url(#a)" d="M10.52 42.34l3-2.55 9.46-31 .66-5.37L22.29.5l-5 5.23L2.16 32.18l-.83 4.35 3.76-1.08 4.13 2.16z" transform="translate(112 35)"/>
    <path fill="url(#b)" d="M121.38 85.85c-.06.1-3.68-1.84-3.68-1.84l-2.27.29-5.18-1.74-4.12 1.44.55 9.94-1.1 4.5 7.42-3.5 5.55-4.22 2.83-4.87z"/>
    <path fill="#000" d="M113 73.05l-5.2 2.45-2 4.3s.6 6.93.7 7.1c.24-.3 1.75-2.65 1.75-2.65L110 88.5l4.22-3 .85 1.38 2.65-2 1 3s2.61-1.92 2.64-2l.74-3.67-.49-3.08-3.15-4.95-5.5-1.1.04-.03z"/>
    <path fill="url(#c)" d="M28 25H9v110h19z"/>
    <path fill="#000" d="M25 100H13v12h12z"/>
    <path fill="#00E59B" d="M25 117H13v12h12z"/>
    <path fill="#000" d="M15 32.25v10.3l3-3.35 4.35-.2zM23.43 51.9l-2.35-2.3-6.25 6.55-.9 3.3 3.25-1zM14.78 73.9a6 6 0 0 1-1.25 2.75c.77.06 1.57.09 2.4.1a3.3 3.3 0 0 0 2.05-.6 2.41 2.41 0 0 0 1.02-1.3 4.1 4.1 0 0 0 .25-1.3L23.83 68c.13-1.44-.4-1.87-1.6-1.3l-4.9 5a2 2 0 0 0-1 .2c-.7.16-1.2.85-1.5 2.05l-.05-.05zm2.98 10.33l-.84 1.32.72.42L14.82 89l.72 3.84 1.8-3a1 1 0 0 0-.06-.3.43.43 0 0 1 .06-.48 1 1 0 0 1 .48-.42.8.8 0 0 1 .48.18.76.76 0 0 1 .36.36.82.82 0 0 1-.12.6.76.76 0 0 1-.42.3.53.53 0 0 1-.24.06l-1.8 3.06 3.78-1.14 1.38-4 .48.36.84-1.32-4.8-2.94v.07z"/>
    <path fill="#5D5D5D" fill-opacity=".2" d="M97.7 172.47c5.49-.68 8.24-1.52 8.24-2.5s-2.75-1.81-8.24-2.5a163.45 163.45 0 0 0-19.81-1 164.51 164.51 0 0 0-19.85 1c-5.46.69-8.2 1.52-8.2 2.5s2.74 1.82 8.2 2.5a162.48 162.48 0 0 0 19.85 1 161.43 161.43 0 0 0 19.81-1z"/>
    <path fill="url(#d)" d="M56.28 71.605c.2-.23-2.8552-2.6187-2.8552-2.6187.9267-1.1733 4.8819-4.9596 9.6552-7.9863-.0667-2.9267-.1167-5.5933-.15-8-.8933.6667-3.809 2.8167-8.7469 6.45-2.6954 5.82-4.2631 9.2867-4.7031 10.4l6.8 1.755z"/>
    <path fill="url(#e)" d="M56.28 71.605c2.9652-.8451 6.9645-1.2217 9.72-2.605 6.7491-3.5175 14.9015-6.907 22.0386-9.55l8.5414-6.3-4.65-.25-5-.25A786.159 786.159 0 0 0 80 56l-2.2 1.1c-.9667.5-1.9667 1-3 1.5-3.48 1.6667-7.08 3.4333-10.8 5.3l-6.6 3.6947-7.85 2.2553a.14.14 0 0 0-.1.05.12.12 0 0 0 0 .1c.1245.2469 5.49 1.205 6.83 1.605z"/>
    <path fill="url(#f)" d="M105.58 100.7l-23.14 24.37-.4.4-9.15-.94-9.35-.53-3.54-8.9 36.48-51.2c.26-2.77.1-10.75.1-10.75l-4.67-.25-5.08 6.85-.55.7C76.2067 71.95 67.1133 82.7333 59 92.8L53.48 99a5983.3072 5983.3072 0 0 1-11.2 12.93l4.35 20.25c1.5733 1.64 10.24 6.5567 26 14.75 3.3 1.74 6.9 3.59 10.8 5.55l17.85-18.59 3.4-7.5 6.94-29.28-6.04 3.59z"/>
  </g>
</svg>
